# xmcd
#
# Track frame offsets: 
#        150
#        17729
#        34320
#        52952
#        73861
#        91522
#        103914
#        118951
#        139181
#        153849
#        170310
#        183632
#        202340
#        218832
#        234268
#        251102
#        262433
#        277826
#        296379
#        312236
#
# Disc length: 4409 seconds
#
# Revision: 0
# Processed by: cddbd v1.5.2PL0 Copyright (c) Steve Scherf et al.
# Submitted via: ExactAudioCopy v0.95b4
#
DISCID=2f113714
DTITLE=Various Artist - Шансон Для Любимых (Часть 3)
DYEAR=2007
DGENRE=Chanson
TTITLE0=Шуфутинский Михаил/Капля Теплоты (& Алика Смехова)
TTITLE1=Маршал Александр/Парусник
TTITLE2=Бандера Андрей/Ивушки
TTITLE3=Заречный Гриша/Столик На Двоих (& Светлана Астахова)
TTITLE4=Михайлов Стас/Всё Для Тебя
TTITLE5=Бондарев Михаил/Незнайка
TTITLE6=Александрова Марина/Научи, Как Быть Любимой
TTITLE7=Полотно Анатолий/Мама
TTITLE8=Шепилова Любовь/Клён
TTITLE9=Михайлов Стас/За Женщин Всех
TTITLE10=Черкасов Александр/Помню Двор Занесенный...
TTITLE11=Могилевский Анатолий/Мама
TTITLE12=Журга/Отвези Меня В Париж
TTITLE13=Кузема Вадим/Сто Лет Одиночества
TTITLE14=Персин Дмитрий/Первая Учительница
TTITLE15=Кабанова Татьяна/Пиьмо Одесского Вора Черноморской Проститутк
TTITLE15=е
TTITLE16=Кама Сергей/Личная Жизнь
TTITLE17=Соловей Юрий/Моя Женщина
TTITLE18=Волжский Владимир/Бай-Бай, Мой Нежный Друг
TTITLE19=Блюмин Игорь/Романс
EXTD=
EXTT0=
EXTT1=
EXTT2=
EXTT3=
EXTT4=
EXTT5=
EXTT6=
EXTT7=
EXTT8=
EXTT9=
EXTT10=
EXTT11=
EXTT12=
EXTT13=
EXTT14=
EXTT15=
EXTT16=
EXTT17=
EXTT18=
EXTT19=
PLAYORDER=
